<?xml version="1.0" standalone="no"?>
<!DOCTYPE svg PUBLIC "-//W3C//DTD SVG 20010904//EN"
 "http://www.w3.org/TR/2001/REC-SVG-20010904/DTD/svg10.dtd">
<svg version="1.0" xmlns="http://www.w3.org/2000/svg"
 width="47.000000pt" height="47.000000pt" viewBox="0 0 47.000000 47.000000"
 preserveAspectRatio="xMidYMid meet">
<metadata>
Created by potrace 1.16, written by Peter Selinger 2001-2019
</metadata>
<g transform="translate(0.000000,47.000000) scale(0.100000,-0.100000)"
fill="#000000" stroke="none">
<path d="M205 400 c-85 -18 -137 -81 -137 -165 0 -112 95 -187 206 -163 80 18
128 79 128 163 0 108 -95 187 -197 165z m78 -52 c12 -6 27 -18 34 -27 16 -21
16 -151 0 -172 -42 -54 -140 -50 -166 8 -15 32 -14 144 2 164 29 38 88 50 130
27z"/>
</g>
</svg>
